# xmcd
#
# Track frame offsets: 
#        150
#        10962
#        25752
#        36825
#        48178
#        63551
#        73000
#        85858
#        98299
#        106907
#        124023
#        135885
#        146236
#        156886
#        175788
#        186596
#        204602
#
# Disc length: 2956 seconds
#
# Revision: 1
# Processed by: cddbd v1.5.2PL0 Copyright (c) Steve Scherf et al.
# Submitted via: ExactAudioCopyFreeDBPlugin 1.0
#
DISCID=e30b8a11
DTITLE=Various Artist - Country Legends Volume 1
DYEAR=1999
DGENRE=Country
TTITLE0=Waylon Jennings - Dream Baby
TTITLE1=Jeannie C. Riley - Harper Valley P.T.A.
TTITLE2=Tammy Wynette - Stand By Your Man
TTITLE3=George Jones - She's My Rock
TTITLE4=Kathy Mattea - Heart Of The Country
TTITLE5=Dottie West - Rocky Top
TTITLE6=Johnny Russell - Crystal Chandaliers
TTITLE7=Tanya Tucker - San Antonio Stroll
TTITLE8=T.G. Sheppard - Love Made A Liar Out Of Me
TTITLE9=Freddy Fender - Whiskey River
TTITLE10=Gene Watson - 14 Carat Mind
TTITLE11=Razzy Bailey - Blaze Of Glory
TTITLE12=Bobby Borchers - Sweet Fantasy
TTITLE13=Barbara Fairchild - Tip Of My Fingers
TTITLE14=Rex Allen Jr. - It's Over
TTITLE15=Charlie Rich - Let's Take It Nice And Easy
TTITLE16=Tex Williams - Deck Of Cards
EXTD=
EXTT0=
EXTT1=
EXTT2=
EXTT3=
EXTT4=
EXTT5=
EXTT6=
EXTT7=
EXTT8=
EXTT9=
EXTT10=
EXTT11=
EXTT12=
EXTT13=
EXTT14=
EXTT15=
EXTT16=
PLAYORDER=
